<svg width="27" height="22" viewBox="0 0 27 22" fill="none" xmlns="http://www.w3.org/2000/svg">
<path d="M22.75 15.75C24.1307 15.75 25.25 14.6307 25.25 13.25C25.25 11.8693 24.1307 10.75 22.75 10.75C21.3693 10.75 20.25 11.8693 20.25 13.25C20.25 14.6307 21.3693 15.75 22.75 15.75Z" stroke="#E4AD52" stroke-width="2.5" stroke-linecap="round" stroke-linejoin="round"/>
<path d="M4 20.75C5.38071 20.75 6.5 19.6307 6.5 18.25C6.5 16.8693 5.38071 15.75 4 15.75C2.61929 15.75 1.5 16.8693 1.5 18.25C1.5 19.6307 2.61929 20.75 4 20.75Z" stroke="#E4AD52" stroke-width="2.5" stroke-linecap="round" stroke-linejoin="round"/>
<path d="M15.25 20.75C16.6307 20.75 17.75 19.6307 17.75 18.25C17.75 16.8693 16.6307 15.75 15.25 15.75C13.8693 15.75 12.75 16.8693 12.75 18.25C12.75 19.6307 13.8693 20.75 15.25 20.75Z" stroke="#E4AD52" stroke-width="2.5" stroke-linecap="round" stroke-linejoin="round"/>
<path d="M15.25 20.75H4M4 15.75H15.25M9 12V5.75H11.5C12.4946 5.75 13.4484 6.14509 14.1517 6.84835C14.8549 7.55161 15.25 8.50544 15.25 9.5V15.75" stroke="#E4AD52" stroke-width="2.5" stroke-linecap="round" stroke-linejoin="round"/>
<path d="M5.25 15.75V13.25C5.25 12.9185 5.3817 12.6005 5.61612 12.3661C5.85054 12.1317 6.16848 12 6.5 12H15.25M22.75 10.75V2L15.25 10.75" stroke="#E4AD52" stroke-width="2.5" stroke-linecap="round" stroke-linejoin="round"/>
</svg>
