<svg width="28" height="26" viewBox="0 0 28 26" fill="none" xmlns="http://www.w3.org/2000/svg">
<path d="M26.5 18H23.775C23.9205 17.5992 23.9966 17.1764 24 16.75V10.5C24 9.50544 23.6049 8.55161 22.9017 7.84835C22.1984 7.14509 21.2446 6.75 20.25 6.75H12.75C11.7554 6.75 10.8016 7.14509 10.0983 7.84835C9.39509 8.55161 9 9.50544 9 10.5V16.75C9.00338 17.1764 9.07947 17.5992 9.225 18H7.75C7.41848 18 7.10054 17.8683 6.86612 17.6339C6.6317 17.3995 6.5 17.0815 6.5 16.75V4.25C6.5 3.25544 6.10491 2.30161 5.40165 1.59835C4.69839 0.895088 3.74456 0.5 2.75 0.5H1.5C1.16848 0.5 0.850537 0.631696 0.616116 0.866116C0.381696 1.10054 0.25 1.41848 0.25 1.75C0.25 2.08152 0.381696 2.39946 0.616116 2.63388C0.850537 2.8683 1.16848 3 1.5 3H2.75C3.08152 3 3.39946 3.1317 3.63388 3.36612C3.8683 3.60054 4 3.91848 4 4.25V16.75C4.00461 17.5711 4.2786 18.368 4.7799 19.0184C5.28121 19.6687 5.98211 20.1365 6.775 20.35C6.54479 20.9132 6.45507 21.5239 6.51358 22.1295C6.57209 22.7351 6.77707 23.3174 7.11084 23.8261C7.44461 24.3348 7.89713 24.7546 8.42937 25.0494C8.96162 25.3442 9.55759 25.505 10.1659 25.518C10.7741 25.5311 11.3765 25.3959 11.9208 25.1242C12.4652 24.8525 12.9353 24.4524 13.2906 23.9585C13.6458 23.4646 13.8755 22.8916 13.9599 22.2891C14.0443 21.6866 13.9809 21.0725 13.775 20.5H17.975C17.7694 21.0664 17.7034 21.674 17.7824 22.2714C17.8615 22.8687 18.0833 23.4383 18.4291 23.9317C18.775 24.4251 19.2346 24.828 19.7692 25.1061C20.3037 25.3842 20.8974 25.5294 21.5 25.5294C22.1026 25.5294 22.6963 25.3842 23.2308 25.1061C23.7654 24.828 24.225 24.4251 24.5709 23.9317C24.9167 23.4383 25.1385 22.8687 25.2176 22.2714C25.2966 21.674 25.2306 21.0664 25.025 20.5H26.5C26.8315 20.5 27.1495 20.3683 27.3839 20.1339C27.6183 19.8995 27.75 19.5815 27.75 19.25C27.75 18.9185 27.6183 18.6005 27.3839 18.3661C27.1495 18.1317 26.8315 18 26.5 18ZM10.25 23C10.0028 23 9.7611 22.9267 9.55554 22.7893C9.34998 22.652 9.18976 22.4568 9.09515 22.2284C9.00054 21.9999 8.97579 21.7486 9.02402 21.5061C9.07225 21.2637 9.1913 21.0409 9.36612 20.8661C9.54093 20.6913 9.76366 20.5723 10.0061 20.524C10.2486 20.4758 10.4999 20.5005 10.7284 20.5951C10.9568 20.6898 11.152 20.85 11.2893 21.0555C11.4267 21.2611 11.5 21.5028 11.5 21.75C11.5 22.0815 11.3683 22.3995 11.1339 22.6339C10.8995 22.8683 10.5815 23 10.25 23ZM12.75 18C12.4185 18 12.1005 17.8683 11.8661 17.6339C11.6317 17.3995 11.5 17.0815 11.5 16.75V10.5C11.5 10.1685 11.6317 9.85054 11.8661 9.61612C12.1005 9.3817 12.4185 9.25 12.75 9.25H20.25C20.5815 9.25 20.8995 9.3817 21.1339 9.61612C21.3683 9.85054 21.5 10.1685 21.5 10.5V16.75C21.5 17.0815 21.3683 17.3995 21.1339 17.6339C20.8995 17.8683 20.5815 18 20.25 18H12.75ZM21.5 23C21.2528 23 21.0111 22.9267 20.8055 22.7893C20.6 22.652 20.4398 22.4568 20.3451 22.2284C20.2505 21.9999 20.2258 21.7486 20.274 21.5061C20.3223 21.2637 20.4413 21.0409 20.6161 20.8661C20.7909 20.6913 21.0137 20.5723 21.2561 20.524C21.4986 20.4758 21.7499 20.5005 21.9784 20.5951C22.2068 20.6898 22.402 20.85 22.5393 21.0555C22.6767 21.2611 22.75 21.5028 22.75 21.75C22.75 22.0815 22.6183 22.3995 22.3839 22.6339C22.1495 22.8683 21.8315 23 21.5 23Z" fill="#E4AD52"/>
</svg>
