<svg width="24" height="28" viewBox="0 0 24 28" fill="none" xmlns="http://www.w3.org/2000/svg">
<path d="M19.5 0.25H9.5C8.50544 0.25 7.55161 0.645088 6.84835 1.34835C6.14509 2.05161 5.75 3.00544 5.75 4H4.5C3.50544 4 2.55161 4.39509 1.84835 5.09835C1.14509 5.80161 0.75 6.75544 0.75 7.75V11.5C0.75 12.4946 1.14509 13.4484 1.84835 14.1517C2.55161 14.8549 3.50544 15.25 4.5 15.25H12C12.3315 15.25 12.6495 15.3817 12.8839 15.6161C13.1183 15.8505 13.25 16.1685 13.25 16.5V17.75C12.587 17.75 11.9511 18.0134 11.4822 18.4822C11.0134 18.9511 10.75 19.587 10.75 20.25V25.25C10.75 25.913 11.0134 26.5489 11.4822 27.0178C11.9511 27.4866 12.587 27.75 13.25 27.75H15.75C16.413 27.75 17.0489 27.4866 17.5178 27.0178C17.9866 26.5489 18.25 25.913 18.25 25.25V20.25C18.25 19.587 17.9866 18.9511 17.5178 18.4822C17.0489 18.0134 16.413 17.75 15.75 17.75V16.5C15.75 15.5054 15.3549 14.5516 14.6517 13.8483C13.9484 13.1451 12.9946 12.75 12 12.75H4.5C4.16848 12.75 3.85054 12.6183 3.61612 12.3839C3.3817 12.1495 3.25 11.8315 3.25 11.5V7.75C3.25 7.41848 3.3817 7.10054 3.61612 6.86612C3.85054 6.6317 4.16848 6.5 4.5 6.5H5.75C5.75 7.49456 6.14509 8.44839 6.84835 9.15165C7.55161 9.85491 8.50544 10.25 9.5 10.25H19.5C20.4946 10.25 21.4484 9.85491 22.1517 9.15165C22.8549 8.44839 23.25 7.49456 23.25 6.5V4C23.25 3.00544 22.8549 2.05161 22.1517 1.34835C21.4484 0.645088 20.4946 0.25 19.5 0.25ZM15.75 20.25V25.25H13.25V20.25H15.75ZM20.75 6.5C20.75 6.83152 20.6183 7.14946 20.3839 7.38388C20.1495 7.6183 19.8315 7.75 19.5 7.75H9.5C9.16848 7.75 8.85054 7.6183 8.61612 7.38388C8.3817 7.14946 8.25 6.83152 8.25 6.5V4C8.25 3.66848 8.3817 3.35054 8.61612 3.11612C8.85054 2.8817 9.16848 2.75 9.5 2.75H19.5C19.8315 2.75 20.1495 2.8817 20.3839 3.11612C20.6183 3.35054 20.75 3.66848 20.75 4V6.5Z" fill="#E4AD52"/>
</svg>
