<svg xmlns="http://www.w3.org/2000/svg" width="26" height="26" viewBox="0 0 26 26" fill="none"><path d="M23.5875 0.500175H2.41251C2.17449 0.496869 1.93814 0.540484 1.71697 0.62853C1.4958 0.716575 1.29414 0.847326 1.12351 1.01331C0.952877 1.1793 0.816614 1.37728 0.722502 1.59594C0.62839 1.81459 0.578273 2.04965 0.575012 2.28767V23.7127C0.578273 23.9507 0.62839 24.1858 0.722502 24.4044C0.816614 24.6231 0.952877 24.821 1.12351 24.987C1.29414 25.153 1.4958 25.2838 1.71697 25.3718C1.93814 25.4599 2.17449 25.5035 2.41251 25.5002H23.5875C23.8255 25.5035 24.0619 25.4599 24.2831 25.3718C24.5042 25.2838 24.7059 25.153 24.8765 24.987C25.0471 24.821 25.1834 24.6231 25.2775 24.4044C25.3716 24.1858 25.4218 23.9507 25.425 23.7127V2.28767C25.4218 2.04965 25.3716 1.81459 25.2775 1.59594C25.1834 1.37728 25.0471 1.1793 24.8765 1.01331C24.7059 0.847326 24.5042 0.716575 24.2831 0.62853C24.0619 0.540484 23.8255 0.496869 23.5875 0.500175ZM8.11251 21.4252H4.36251V10.1752H8.11251V21.4252ZM6.23751 8.60017C5.72034 8.60017 5.22435 8.39473 4.85865 8.02903C4.49296 7.66334 4.28751 7.16735 4.28751 6.65017C4.28751 6.133 4.49296 5.63701 4.85865 5.27132C5.22435 4.90562 5.72034 4.70017 6.23751 4.70017C6.51213 4.66903 6.79023 4.69624 7.05361 4.78003C7.31698 4.86382 7.55969 5.00229 7.76583 5.18638C7.97198 5.37047 8.13692 5.59602 8.24985 5.84828C8.36278 6.10053 8.42116 6.3738 8.42116 6.65017C8.42116 6.92655 8.36278 7.19982 8.24985 7.45207C8.13692 7.70433 7.97198 7.92988 7.76583 8.11397C7.55969 8.29806 7.31698 8.43653 7.05361 8.52032C6.79023 8.60411 6.51213 8.63132 6.23751 8.60017ZM21.6375 21.4252H17.8875V15.3877C17.8875 13.8752 17.35 12.8877 15.9875 12.8877C15.5658 12.8908 15.1552 13.023 14.8111 13.2666C14.4669 13.5103 14.2056 13.8535 14.0625 14.2502C13.9647 14.544 13.9223 14.8534 13.9375 15.1627V21.4127H10.1875V10.1627H13.9375V11.7502C14.2782 11.1591 14.7736 10.6721 15.3706 10.3417C15.9675 10.0113 16.6432 9.84999 17.325 9.87517C19.825 9.87517 21.6375 11.4877 21.6375 14.9502V21.4252Z" fill="white"></path></svg>