<svg xmlns="http://www.w3.org/2000/svg" width="21" height="20" viewBox="0 0 21 20" fill="none"><path d="M18.44 10.9999C18.22 10.9999 17.99 10.9299 17.77 10.8799C17.3245 10.7817 16.8867 10.6514 16.46 10.4899C15.9961 10.3211 15.4862 10.3299 15.0283 10.5145C14.5705 10.6991 14.1971 11.0465 13.98 11.4899L13.76 11.9399C12.786 11.398 11.891 10.7251 11.1 9.93987C10.3148 9.14888 9.64183 8.25387 9.10001 7.27987L9.52001 6.99987C9.96338 6.78278 10.3108 6.4094 10.4954 5.95156C10.68 5.49372 10.6888 4.98378 10.52 4.51987C10.3612 4.09229 10.2309 3.65467 10.13 3.20987C10.08 2.98987 10.04 2.75987 10.01 2.52987C9.88857 1.82549 9.51963 1.18761 8.96963 0.731107C8.41963 0.274605 7.72471 0.0294769 7.01001 0.0398681H4.01001C3.57904 0.0358215 3.15226 0.124682 2.75872 0.300399C2.36518 0.476116 2.01412 0.734564 1.72944 1.05815C1.44476 1.38174 1.23314 1.76286 1.109 2.17558C0.984851 2.5883 0.951089 3.02293 1.01001 3.44987C1.54275 7.63925 3.45604 11.5317 6.44766 14.5125C9.43929 17.4933 13.3387 19.3924 17.53 19.9099H17.91C18.6474 19.9109 19.3594 19.6404 19.91 19.1499C20.2264 18.8669 20.4791 18.52 20.6515 18.1322C20.8239 17.7443 20.912 17.3243 20.91 16.8999V13.8999C20.8978 13.2053 20.6448 12.5364 20.1943 12.0075C19.7439 11.4786 19.1238 11.1225 18.44 10.9999ZM18.94 16.9999C18.9398 17.1419 18.9094 17.2822 18.8508 17.4115C18.7922 17.5408 18.7067 17.6562 18.6 17.7499C18.4883 17.8463 18.3576 17.9184 18.2164 17.9615C18.0752 18.0045 17.9266 18.0176 17.78 17.9999C14.0349 17.5197 10.5562 15.8064 7.89273 13.1302C5.22921 10.454 3.53242 6.96721 3.07001 3.21987C3.05409 3.07339 3.06804 2.9252 3.11101 2.78426C3.15398 2.64332 3.22508 2.51256 3.32001 2.39987C3.41372 2.2932 3.52907 2.20771 3.65839 2.14909C3.78771 2.09046 3.92802 2.06005 4.07001 2.05987H7.07001C7.30256 2.05469 7.52963 2.13075 7.71215 2.27494C7.89467 2.41913 8.02122 2.62244 8.07001 2.84987C8.11001 3.1232 8.16001 3.3932 8.22001 3.65987C8.33553 4.18701 8.48927 4.70505 8.68001 5.20987L7.28001 5.85987C7.16031 5.91479 7.05263 5.99281 6.96317 6.08946C6.8737 6.18611 6.80421 6.29948 6.75868 6.42306C6.71315 6.54664 6.69248 6.678 6.69786 6.80959C6.70323 6.94118 6.73455 7.07041 6.79001 7.18987C8.22921 10.2726 10.7073 12.7507 13.79 14.1899C14.0335 14.2899 14.3065 14.2899 14.55 14.1899C14.6747 14.1453 14.7893 14.0763 14.8872 13.9871C14.985 13.8978 15.0642 13.79 15.12 13.6699L15.74 12.2699C16.257 12.4547 16.7846 12.6084 17.32 12.7299C17.5867 12.7899 17.8567 12.8399 18.13 12.8799C18.3574 12.9287 18.5607 13.0552 18.7049 13.2377C18.8491 13.4202 18.9252 13.6473 18.92 13.8799L18.94 16.9999Z" fill="#E4AD52"></path></svg>