<svg xmlns="http://www.w3.org/2000/svg" width="21" height="18" viewBox="0 0 21 18" fill="none"><path d="M17.425 1.42497C17.7772 1.08969 18.2458 0.904334 18.732 0.908013C19.2183 0.911692 19.6841 1.10412 20.0311 1.44469C20.3782 1.78525 20.5793 2.24733 20.5922 2.7334C20.6051 3.21948 20.4286 3.69153 20.1 4.04997L10.125 16.525C9.95348 16.7097 9.74646 16.858 9.51633 16.9609C9.2862 17.0638 9.03768 17.1192 8.78563 17.1239C8.53358 17.1286 8.28317 17.0824 8.04939 16.988C7.81561 16.8937 7.60324 16.7532 7.425 16.575L0.809997 9.95997C0.62578 9.78831 0.478025 9.58131 0.375545 9.35131C0.273065 9.12131 0.21796 8.87303 0.213518 8.62127C0.209076 8.36952 0.255388 8.11944 0.349691 7.88597C0.443993 7.6525 0.584355 7.44042 0.762402 7.26237C0.940449 7.08432 1.15253 6.94396 1.386 6.84966C1.61947 6.75536 1.86955 6.70905 2.1213 6.71349C2.37306 6.71793 2.62134 6.77303 2.85134 6.87551C3.08134 6.97799 3.28834 7.12575 3.46 7.30997L8.695 12.5425L17.3775 1.47997C17.3931 1.46072 17.4098 1.44236 17.4275 1.42497H17.425Z" fill="#E4AD52"></path></svg>