<svg width="21" height="21" viewBox="0 0 21 21" fill="none" xmlns="http://www.w3.org/2000/svg">
<path d="M20.21 18.79L16.5 15.11C17.9401 13.3144 18.6375 11.0353 18.4488 8.7413C18.2601 6.44731 17.1997 4.31279 15.4855 2.77665C13.7714 1.24051 11.5338 0.419514 9.23292 0.482474C6.93203 0.545434 4.74272 1.48757 3.11514 3.11515C1.48756 4.74273 0.545427 6.93204 0.482466 9.23293C0.419506 11.5338 1.2405 13.7714 2.77664 15.4855C4.31278 17.1997 6.4473 18.2601 8.7413 18.4488C11.0353 18.6375 13.3144 17.9401 15.11 16.5L18.79 20.18C18.883 20.2737 18.9936 20.3481 19.1154 20.3989C19.2373 20.4497 19.368 20.4758 19.5 20.4758C19.632 20.4758 19.7627 20.4497 19.8846 20.3989C20.0064 20.3481 20.117 20.2737 20.21 20.18C20.3902 19.9935 20.491 19.7443 20.491 19.485C20.491 19.2257 20.3902 18.9765 20.21 18.79ZM9.5 16.5C8.11553 16.5 6.76215 16.0895 5.611 15.3203C4.45986 14.5511 3.56265 13.4579 3.03284 12.1788C2.50303 10.8997 2.3644 9.49224 2.6345 8.13437C2.9046 6.7765 3.57128 5.52922 4.55025 4.55026C5.52922 3.57129 6.7765 2.9046 8.13436 2.63451C9.49223 2.36441 10.8997 2.50303 12.1788 3.03285C13.4579 3.56266 14.5511 4.45987 15.3203 5.61101C16.0895 6.76216 16.5 8.11553 16.5 9.5C16.5 11.3565 15.7625 13.137 14.4497 14.4498C13.137 15.7625 11.3565 16.5 9.5 16.5Z" fill="#818181"/>
</svg>
