<svg xmlns="http://www.w3.org/2000/svg" width="70" height="51" viewBox="0 0 70 51" fill="none"><path fill-rule="evenodd" clip-rule="evenodd" d="M11.3333 0H33.5952V21.9846L36.4286 19.4661V15.7857H69.2143V23.354L66.256 31.5714H66.381H69.2143H69.619V46.9524H69.2143V47.2793L68.3576 46.9524H66.381V46.1981L52.2143 40.7924L38.8571 45.8892V46.9524H35.619V31.5714H36.8333H38.8571H39.3869L36.5498 23.6907L33.5952 26.317V31.476L30.3571 34.4326V47.3571H27.119V37.3891L22.7502 41.378L20.2381 39.4241V51H17V41.1375L11.3563 46.2905L4.85714 40.6037V51H1.61905V37.7704L0 36.3537V4.85714H11.3333V0ZM26.9083 27.9286H22.2619V31.9762H22.3547L26.9083 27.9286ZM27.2287 31.9762L30.3571 29.1953V30.0478L28.2451 31.9762H27.2287ZM21.959 36.6604L23.5858 35.2143H24.6986L22.5831 37.1458L21.959 36.6604ZM14.1582 39.2619L11.8767 41.2899L11.9457 41.3675L11.3104 41.9476L8.24099 39.2619H14.1582ZM19.0238 34.9049L17.7984 36.0238H4.54031L3.2381 34.8844V33.5952H19.0238V34.9049ZM30.3571 24.6905V20.2381H22.2619V24.6905H30.3571ZM22.2619 17H30.3571V10.5238H22.2619V17ZM22.2619 7.28571V4.85714H14.5714V3.2381H30.3571V7.28571H22.2619ZM19.0238 8.09524V13.3571H3.2381V8.09524H19.0238ZM3.2381 23.0714V16.5952H19.0238V23.0714H3.2381ZM3.2381 26.3095H19.0238V30.3571H3.2381V26.3095ZM38.8571 42.4234L47.6729 39.0595L38.8571 35.6956V42.4234ZM42.8284 31.5714H62.8145L65.2916 24.6905H40.3512L42.8284 31.5714ZM39.6667 21.4524V19.0238H65.9762V21.4524H39.6667ZM45.6178 34.8095L52.2143 37.3266L58.8108 34.8095H45.6178ZM56.7557 39.0595L65.9762 42.5779V35.5412L56.7557 39.0595Z" fill="#E4AD52"></path></svg>