<svg xmlns="http://www.w3.org/2000/svg" width="26" height="20" viewBox="0 0 26 20" fill="none"><path d="M0.5 11.875V14.375C0.5 14.7065 0.631696 15.0245 0.866116 15.2589C1.10054 15.4933 1.41848 15.625 1.75 15.625H14.25C14.25 16.6196 14.6451 17.5734 15.3483 18.2767C16.0516 18.9799 17.0054 19.375 18 19.375C18.9946 19.375 19.9484 18.9799 20.6517 18.2767C21.3549 17.5734 21.75 16.6196 21.75 15.625H24.25C24.5815 15.625 24.8995 15.4933 25.1339 15.2589C25.3683 15.0245 25.5 14.7065 25.5 14.375V4.375C25.5 3.38044 25.1049 2.42661 24.4017 1.72335C23.6984 1.02009 22.7446 0.625 21.75 0.625H9.25C8.25544 0.625 7.30161 1.02009 6.59835 1.72335C5.89509 2.42661 5.5 3.38044 5.5 4.375V13.125H3V11.875C3 11.5435 2.8683 11.2255 2.63388 10.9911C2.39946 10.7567 2.08152 10.625 1.75 10.625C1.41848 10.625 1.10054 10.7567 0.866116 10.9911C0.631696 11.2255 0.5 11.5435 0.5 11.875ZM16.75 15.625C16.75 15.3778 16.8233 15.1361 16.9607 14.9305C17.098 14.725 17.2932 14.5648 17.5216 14.4701C17.7501 14.3755 18.0014 14.3508 18.2439 14.399C18.4863 14.4472 18.7091 14.5663 18.8839 14.7411C19.0587 14.9159 19.1777 15.1387 19.226 15.3811C19.2742 15.6236 19.2495 15.8749 19.1549 16.1034C19.0602 16.3318 18.9 16.527 18.6945 16.6643C18.4889 16.8017 18.2472 16.875 18 16.875C17.6685 16.875 17.3505 16.7433 17.1161 16.5089C16.8817 16.2745 16.75 15.9565 16.75 15.625ZM8 8.125H23V13.125H20.775C20.4235 12.7383 19.9951 12.4293 19.5172 12.2179C19.0394 12.0065 18.5226 11.8973 18 11.8973C17.4774 11.8973 16.9606 12.0065 16.4828 12.2179C16.0049 12.4293 15.5765 12.7383 15.225 13.125H8V8.125ZM8 4.375C8 4.04348 8.1317 3.72554 8.36612 3.49112C8.60054 3.2567 8.91848 3.125 9.25 3.125H21.75C22.0815 3.125 22.3995 3.2567 22.6339 3.49112C22.8683 3.72554 23 4.04348 23 4.375V5.625H8V4.375Z" fill="#E4AD52"></path></svg>