<svg xmlns="http://www.w3.org/2000/svg" width="26" height="26" viewBox="0 0 26 26" fill="none"><path d="M5.5 24.25H13M9.25 24.25V1.75L1.75 9.25H24.25M9.25 1.75L21.75 9.25" stroke="#E4AD52" stroke-width="2.5" stroke-linecap="round" stroke-linejoin="round"></path><path d="M19.25 9.25V14.25C19.7445 14.25 20.2278 14.3966 20.6389 14.6713C21.05 14.946 21.3705 15.3365 21.5597 15.7933C21.7489 16.2501 21.7984 16.7528 21.702 17.2377C21.6055 17.7227 21.3674 18.1681 21.0178 18.5178C20.6681 18.8674 20.2227 19.1055 19.7377 19.202C19.2528 19.2984 18.7501 19.2489 18.2933 19.0597C17.8365 18.8705 17.446 18.55 17.1713 18.1389C16.8966 17.7278 16.75 17.2445 16.75 16.75" stroke="#E4AD52" stroke-width="2.5" stroke-linecap="round" stroke-linejoin="round"></path></svg>